<mxfile host="Electron" modified="2025-05-05T23:20:39.347Z" agent="Mozilla/5.0 (Windows NT 10.0; Win64; x64) AppleWebKit/537.36 (KHTML, like Gecko) draw.io/24.4.13 Chrome/124.0.6367.207 Electron/30.0.6 Safari/537.36" etag="YuNveIRvn7B8eZ44PrOc" version="24.4.13" type="device">
  <diagram name="Page-1" id="qJjyD0SNZOM7wJNY5bkx">
    <mxGraphModel dx="2643" dy="1055" grid="1" gridSize="10" guides="1" tooltips="1" connect="1" arrows="1" fold="1" page="1" pageScale="1" pageWidth="850" pageHeight="1100" math="0" shadow="0">
      <root>
        <mxCell id="0" />
        <mxCell id="1" parent="0" />
        <mxCell id="yHKxLuT8y0Q-U1fDpz-Y-1" value="برنامه وب&amp;nbsp;" style="rounded=1;whiteSpace=wrap;html=1;" parent="1" vertex="1">
          <mxGeometry x="130" y="160" width="120" height="60" as="geometry" />
        </mxCell>
        <mxCell id="yHKxLuT8y0Q-U1fDpz-Y-2" value="سرویس سفارش&amp;nbsp;" style="rounded=1;whiteSpace=wrap;html=1;" parent="1" vertex="1">
          <mxGeometry x="410" y="160" width="120" height="60" as="geometry" />
        </mxCell>
        <mxCell id="yHKxLuT8y0Q-U1fDpz-Y-3" value="سرویس موجودی&amp;nbsp;" style="rounded=1;whiteSpace=wrap;html=1;" parent="1" vertex="1">
          <mxGeometry x="630" y="160" width="120" height="60" as="geometry" />
        </mxCell>
        <mxCell id="yHKxLuT8y0Q-U1fDpz-Y-4" value="در گاه پرداخت&amp;nbsp;" style="rounded=1;whiteSpace=wrap;html=1;" parent="1" vertex="1">
          <mxGeometry x="830" y="160" width="120" height="60" as="geometry" />
        </mxCell>
        <mxCell id="yHKxLuT8y0Q-U1fDpz-Y-5" value="سرویس ارسال&amp;nbsp;" style="rounded=1;whiteSpace=wrap;html=1;" parent="1" vertex="1">
          <mxGeometry x="1060" y="160" width="120" height="60" as="geometry" />
        </mxCell>
        <mxCell id="yHKxLuT8y0Q-U1fDpz-Y-6" value="مشتری&amp;nbsp;" style="shape=umlActor;verticalLabelPosition=bottom;verticalAlign=top;html=1;outlineConnect=0;" parent="1" vertex="1">
          <mxGeometry x="-20" y="160" width="30" height="60" as="geometry" />
        </mxCell>
        <mxCell id="yHKxLuT8y0Q-U1fDpz-Y-10" value="" style="endArrow=none;dashed=1;html=1;rounded=0;" parent="1" edge="1">
          <mxGeometry width="50" height="50" relative="1" as="geometry">
            <mxPoint x="190" y="891" as="sourcePoint" />
            <mxPoint x="189.5" y="220" as="targetPoint" />
          </mxGeometry>
        </mxCell>
        <mxCell id="yHKxLuT8y0Q-U1fDpz-Y-11" value="" style="endArrow=none;dashed=1;html=1;rounded=0;entryX=0.583;entryY=1.067;entryDx=0;entryDy=0;entryPerimeter=0;" parent="1" target="yHKxLuT8y0Q-U1fDpz-Y-2" edge="1">
          <mxGeometry width="50" height="50" relative="1" as="geometry">
            <mxPoint x="480" y="881" as="sourcePoint" />
            <mxPoint x="480" y="440" as="targetPoint" />
          </mxGeometry>
        </mxCell>
        <mxCell id="yHKxLuT8y0Q-U1fDpz-Y-12" value="" style="endArrow=none;dashed=1;html=1;rounded=0;" parent="1" edge="1">
          <mxGeometry width="50" height="50" relative="1" as="geometry">
            <mxPoint x="680" y="880" as="sourcePoint" />
            <mxPoint x="689.5" y="220" as="targetPoint" />
          </mxGeometry>
        </mxCell>
        <mxCell id="yHKxLuT8y0Q-U1fDpz-Y-13" value="" style="endArrow=none;dashed=1;html=1;rounded=0;" parent="1" edge="1">
          <mxGeometry width="50" height="50" relative="1" as="geometry">
            <mxPoint x="890" y="880" as="sourcePoint" />
            <mxPoint x="889.5" y="220" as="targetPoint" />
          </mxGeometry>
        </mxCell>
        <mxCell id="yHKxLuT8y0Q-U1fDpz-Y-14" value="" style="endArrow=none;dashed=1;html=1;rounded=0;" parent="1" edge="1">
          <mxGeometry width="50" height="50" relative="1" as="geometry">
            <mxPoint x="-5" y="950" as="sourcePoint" />
            <mxPoint x="-5.5" y="210" as="targetPoint" />
          </mxGeometry>
        </mxCell>
        <mxCell id="yHKxLuT8y0Q-U1fDpz-Y-19" value="" style="endArrow=none;dashed=1;html=1;rounded=0;entryX=0.5;entryY=1;entryDx=0;entryDy=0;" parent="1" target="yHKxLuT8y0Q-U1fDpz-Y-5" edge="1">
          <mxGeometry width="50" height="50" relative="1" as="geometry">
            <mxPoint x="1110" y="881" as="sourcePoint" />
            <mxPoint x="1170" y="460" as="targetPoint" />
          </mxGeometry>
        </mxCell>
        <mxCell id="yHKxLuT8y0Q-U1fDpz-Y-20" value="" style="endArrow=open;endFill=1;endSize=12;html=1;rounded=0;" parent="1" edge="1">
          <mxGeometry width="160" relative="1" as="geometry">
            <mxPoint y="300" as="sourcePoint" />
            <mxPoint x="190" y="300" as="targetPoint" />
          </mxGeometry>
        </mxCell>
        <mxCell id="yHKxLuT8y0Q-U1fDpz-Y-21" value="ثبت سفارش&amp;nbsp;" style="text;html=1;align=center;verticalAlign=middle;resizable=0;points=[];autosize=1;strokeColor=none;fillColor=none;" parent="1" vertex="1">
          <mxGeometry x="110" y="248" width="70" height="30" as="geometry" />
        </mxCell>
        <mxCell id="yHKxLuT8y0Q-U1fDpz-Y-22" value="" style="endArrow=open;endFill=1;endSize=12;html=1;rounded=0;" parent="1" edge="1">
          <mxGeometry width="160" relative="1" as="geometry">
            <mxPoint x="190" y="370" as="sourcePoint" />
            <mxPoint x="480" y="370" as="targetPoint" />
          </mxGeometry>
        </mxCell>
        <mxCell id="yHKxLuT8y0Q-U1fDpz-Y-23" value="برسی موجودی محصولات&amp;nbsp;" style="text;html=1;align=center;verticalAlign=middle;resizable=0;points=[];autosize=1;strokeColor=none;fillColor=none;" parent="1" vertex="1">
          <mxGeometry x="330" y="318" width="130" height="30" as="geometry" />
        </mxCell>
        <mxCell id="yHKxLuT8y0Q-U1fDpz-Y-24" value="" style="endArrow=open;endFill=1;endSize=12;html=1;rounded=0;" parent="1" edge="1">
          <mxGeometry width="160" relative="1" as="geometry">
            <mxPoint x="480" y="430" as="sourcePoint" />
            <mxPoint x="680" y="430" as="targetPoint" />
          </mxGeometry>
        </mxCell>
        <mxCell id="yHKxLuT8y0Q-U1fDpz-Y-25" value="برسی موجودی محصول&amp;nbsp;" style="text;html=1;align=center;verticalAlign=middle;resizable=0;points=[];autosize=1;strokeColor=none;fillColor=none;" parent="1" vertex="1">
          <mxGeometry x="540" y="378" width="120" height="30" as="geometry" />
        </mxCell>
        <mxCell id="yHKxLuT8y0Q-U1fDpz-Y-28" value="" style="endArrow=open;endFill=1;endSize=12;html=1;rounded=0;" parent="1" edge="1">
          <mxGeometry width="160" relative="1" as="geometry">
            <mxPoint x="480" y="520" as="sourcePoint" />
            <mxPoint x="890" y="520" as="targetPoint" />
          </mxGeometry>
        </mxCell>
        <mxCell id="yHKxLuT8y0Q-U1fDpz-Y-29" value="" style="endArrow=block;dashed=1;endFill=0;endSize=12;html=1;rounded=0;" parent="1" edge="1">
          <mxGeometry width="160" relative="1" as="geometry">
            <mxPoint x="690" y="480" as="sourcePoint" />
            <mxPoint x="480" y="480" as="targetPoint" />
          </mxGeometry>
        </mxCell>
        <mxCell id="yHKxLuT8y0Q-U1fDpz-Y-30" value="تایید موجودی&amp;nbsp;" style="text;html=1;align=center;verticalAlign=middle;resizable=0;points=[];autosize=1;strokeColor=none;fillColor=none;" parent="1" vertex="1">
          <mxGeometry x="530" y="438" width="80" height="30" as="geometry" />
        </mxCell>
        <mxCell id="yHKxLuT8y0Q-U1fDpz-Y-31" value="پردازش پرداخت&amp;nbsp;" style="text;html=1;align=center;verticalAlign=middle;resizable=0;points=[];autosize=1;strokeColor=none;fillColor=none;" parent="1" vertex="1">
          <mxGeometry x="535" y="488" width="90" height="30" as="geometry" />
        </mxCell>
        <mxCell id="yHKxLuT8y0Q-U1fDpz-Y-32" value="" style="endArrow=block;dashed=1;endFill=0;endSize=12;html=1;rounded=0;" parent="1" edge="1">
          <mxGeometry width="160" relative="1" as="geometry">
            <mxPoint x="890" y="600" as="sourcePoint" />
            <mxPoint x="480" y="600" as="targetPoint" />
          </mxGeometry>
        </mxCell>
        <mxCell id="yHKxLuT8y0Q-U1fDpz-Y-33" value="تایید پرداخت&amp;nbsp;" style="text;html=1;align=center;verticalAlign=middle;resizable=0;points=[];autosize=1;strokeColor=none;fillColor=none;" parent="1" vertex="1">
          <mxGeometry x="530" y="560" width="80" height="30" as="geometry" />
        </mxCell>
        <mxCell id="yHKxLuT8y0Q-U1fDpz-Y-34" value="" style="endArrow=open;endFill=1;endSize=12;html=1;rounded=0;" parent="1" edge="1">
          <mxGeometry width="160" relative="1" as="geometry">
            <mxPoint x="485" y="670" as="sourcePoint" />
            <mxPoint x="1110" y="670" as="targetPoint" />
          </mxGeometry>
        </mxCell>
        <mxCell id="yHKxLuT8y0Q-U1fDpz-Y-35" value="ارسال سفارش&amp;nbsp;" style="text;html=1;align=center;verticalAlign=middle;resizable=0;points=[];autosize=1;strokeColor=none;fillColor=none;" parent="1" vertex="1">
          <mxGeometry x="550" y="628" width="80" height="30" as="geometry" />
        </mxCell>
        <mxCell id="yHKxLuT8y0Q-U1fDpz-Y-36" value="" style="endArrow=block;dashed=1;endFill=0;endSize=12;html=1;rounded=0;" parent="1" edge="1">
          <mxGeometry width="160" relative="1" as="geometry">
            <mxPoint x="1110" y="790" as="sourcePoint" />
            <mxPoint x="-10" y="790" as="targetPoint" />
          </mxGeometry>
        </mxCell>
        <mxCell id="yHKxLuT8y0Q-U1fDpz-Y-37" value="نمایش تایید یه" style="text;html=1;align=center;verticalAlign=middle;resizable=0;points=[];autosize=1;strokeColor=none;fillColor=none;" parent="1" vertex="1">
          <mxGeometry x="80" y="728" width="80" height="30" as="geometry" />
        </mxCell>
      </root>
    </mxGraphModel>
  </diagram>
</mxfile>
